<svg width="82" height="82" fill="none" xmlns="http://www.w3.org/2000/svg"><g clip-path="url(#clip0_1_31)" fill="#fff"><path d="M41.371.407C19.081.407.948 18.541.948 40.83c0 22.29 18.133 40.423 40.423 40.423 22.291 0 40.424-18.134 40.424-40.423S63.662.407 41.37.407zm0 77.478c-20.432 0-37.054-16.623-37.054-37.055S20.939 3.776 41.37 3.776c20.433 0 37.055 16.622 37.055 37.054 0 20.432-16.622 37.055-37.055 37.055z"/><path d="M57.442 39.414l-23.58-15.159a1.68 1.68 0 00-1.717-.062 1.682 1.682 0 00-.879 1.479v30.317a1.682 1.682 0 002.596 1.416l23.58-15.159c.48-.309.773-.843.773-1.416 0-.572-.293-1.107-.773-1.416zm-22.807 13.49V28.756l18.78 12.073-18.78 12.073z"/></g><defs><clipPath id="clip0_1_31"><path fill="#fff" transform="translate(.948 .407)" d="M0 0h80.846v80.846H0z"/></clipPath></defs></svg>